<svg width="404" height="326" viewBox="0 0 404 326" fill="none" xmlns="http://www.w3.org/2000/svg">
<path fill-rule="evenodd" clip-rule="evenodd" d="M263.764 15.2171C263.764 23.6213 256.951 30.4343 248.546 30.4343C246.947 30.4343 245.404 30.1873 243.956 29.7295L236.567 57.0403C241.182 58.972 244.918 62.5844 247.01 67.1121L293.165 42.7595C292.678 41.6337 292.408 40.3919 292.408 39.087C292.408 33.9786 296.549 29.8374 301.657 29.8374C306.766 29.8374 310.907 33.9786 310.907 39.087C310.907 44.1955 306.766 48.3367 301.657 48.3367C299.153 48.3367 296.882 47.3417 295.216 45.7257L248.223 70.5208C248.629 72.1093 248.845 73.7739 248.845 75.4889C248.845 86.5297 239.894 95.4801 228.854 95.4801C217.813 95.4801 208.863 86.5297 208.863 75.4889C208.863 64.4481 217.813 55.4978 228.854 55.4978C230.329 55.4978 231.766 55.6575 233.15 55.9607L240.652 28.2291C237.098 26.0683 234.5 22.4924 233.638 18.2837L184.759 17.6101C183.646 23.2207 178.697 27.4504 172.759 27.4504C167.5 27.4504 163.016 24.1316 161.287 19.4741L93.9827 37.3152C94.1804 37.9706 94.2866 38.6657 94.2866 39.3856C94.2866 43.3405 91.0805 46.5466 87.1256 46.5466C85.1684 46.5466 83.3947 45.7615 82.1021 44.489L47.7334 74.9605C48.8769 76.9638 49.5303 79.283 49.5303 81.7548C49.5303 84.0465 48.9687 86.2071 47.9755 88.1063L71.9646 111.037C74.3172 109.144 77.3069 108.012 80.5612 108.012C83.5794 108.012 86.37 108.986 88.6358 110.637L122.52 84.1844C119.413 80.2284 117.56 75.2406 117.56 69.8199C117.56 56.9664 127.98 46.5466 140.833 46.5466C153.687 46.5466 164.106 56.9664 164.106 69.8199C164.106 77.0411 160.818 83.4942 155.656 87.763L216.038 131.921C219.624 130.677 223.482 130 227.5 130C242.08 130 254.547 138.913 259.598 151.511L316.099 114.681C313.489 110.047 312 104.697 312 99C312 81.3269 326.327 67 344 67C361.673 67 376 81.3269 376 99C376 107.001 373.063 114.317 368.209 119.927L387.437 167.585C388.933 166.885 390.603 166.493 392.363 166.493C398.79 166.493 404 171.703 404 178.13C404 184.557 398.79 189.767 392.363 189.767C391.563 189.767 390.782 189.686 390.028 189.532L369.474 221.283C376.501 224.814 381.323 232.089 381.323 240.49C381.323 252.355 371.705 261.973 359.84 261.973C353.247 261.973 347.348 259.003 343.407 254.328L333.587 269.439C336.493 271.734 338.357 275.289 338.357 279.279C338.357 286.2 332.747 291.811 325.826 291.811C320.397 291.811 315.774 288.358 314.033 283.529L287.633 296.348C287.601 301.098 283.739 304.94 278.981 304.94C274.202 304.94 270.328 301.066 270.328 296.287C270.328 291.508 274.202 287.634 278.981 287.634C282.494 287.634 285.519 289.728 286.874 292.736L313.309 279.9C313.299 279.694 313.294 279.487 313.294 279.279C313.294 272.358 318.905 266.747 325.826 266.747C327.472 266.747 329.045 267.065 330.485 267.642L341.193 251.164C339.389 248.02 338.357 244.376 338.357 240.49C338.357 228.626 347.976 219.007 359.84 219.007C362.012 219.007 364.109 219.33 366.085 219.929L386.598 188.241C383.091 186.236 380.727 182.459 380.727 178.13C380.727 174.781 382.141 171.763 384.405 169.64L365.476 122.723C359.798 127.867 352.265 131 344 131C340.631 131 337.383 130.479 334.333 129.514L323.944 162.266C327.19 163.958 329.406 167.354 329.406 171.267C329.406 176.87 324.864 181.412 319.261 181.412C318.595 181.412 317.944 181.348 317.314 181.225L299.442 241.293C300.601 242.102 301.359 243.446 301.359 244.966C301.359 247.438 299.355 249.442 296.883 249.442C294.412 249.442 292.408 247.438 292.408 244.966C292.408 242.827 293.908 241.039 295.914 240.596L313.966 179.922C311.057 178.139 309.117 174.93 309.117 171.267C309.117 165.665 313.659 161.123 319.261 161.123C319.69 161.123 320.111 161.149 320.526 161.201L330.98 128.24C325.784 125.923 321.319 122.261 318.028 117.697L260.782 155.013C261.576 157.876 262 160.889 262 164C262 182.051 247.726 196.817 229.694 197.932L231.322 221.454C246.434 222.418 258.393 234.981 258.393 250.337C258.393 263.622 249.441 274.817 237.241 278.219L245.696 305.263C246.511 305.052 247.367 304.939 248.248 304.939C253.851 304.939 258.393 309.481 258.393 315.084C258.393 320.687 253.851 325.229 248.248 325.229C242.645 325.229 238.104 320.687 238.104 315.084C238.104 311.651 239.809 308.616 242.419 306.78L233.723 278.966C232.329 279.172 230.902 279.279 229.45 279.279C213.466 279.279 200.508 266.321 200.508 250.337C200.508 234.929 212.547 222.334 227.732 221.444L226.108 197.973C216.7 197.605 208.261 193.524 202.257 187.176L177.825 222.494C178.972 224.659 179.622 227.128 179.622 229.749C179.622 238.318 172.675 245.264 164.106 245.264C155.537 245.264 148.591 238.318 148.591 229.749C148.591 221.18 155.537 214.233 164.106 214.233C168.682 214.233 172.795 216.214 175.635 219.365L199.859 184.349C196.664 180.142 194.436 175.181 193.497 169.785L157.532 176.719C157.539 176.89 157.542 177.062 157.542 177.235C157.542 184.486 151.664 190.363 144.414 190.363C141.336 190.363 138.506 189.305 136.268 187.531L106.48 217.136C107.08 218.43 107.415 219.873 107.415 221.394C107.415 226.997 102.873 231.539 97.2702 231.539C91.6674 231.539 87.1255 226.997 87.1255 221.394C87.1255 215.791 91.6674 211.25 97.2702 211.25C100.044 211.25 102.557 212.363 104.389 214.166L133.788 184.948C132.854 183.662 132.146 182.2 131.726 180.621L79.9209 179.38C79.2796 188.519 71.6626 195.734 62.3605 195.734C52.638 195.734 44.7563 187.853 44.7563 178.13C44.7563 168.408 52.638 160.526 62.3605 160.526C71.2918 160.526 78.6696 167.177 79.8113 175.796L131.287 177.029C131.397 169.873 137.232 164.106 144.414 164.106C150.254 164.106 155.204 167.92 156.908 173.193L193.072 166.221C193.024 165.487 193 164.746 193 164C193 150.648 200.81 139.093 212.174 133.531L152.554 89.9305C149.112 91.9411 145.107 93.0932 140.833 93.0932C134.693 93.0932 129.108 90.7154 124.949 86.8305L91.2561 113.134C93.1518 115.487 94.2865 118.48 94.2865 121.737C94.2865 129.317 88.1414 135.462 80.5612 135.462C74.9104 135.462 70.0572 132.047 67.9527 127.169L21.8929 139.098C22.0156 139.757 22.0798 140.437 22.0798 141.131C22.0798 147.229 17.137 152.171 11.0399 152.171C4.94272 152.171 0 147.229 0 141.131C0 135.034 4.94272 130.092 11.0399 130.092C15.17 130.092 18.7704 132.36 20.6636 135.718L66.9785 123.722C66.8846 123.074 66.8359 122.411 66.8359 121.737C66.8359 118.702 67.8212 115.897 69.4894 113.624L45.8895 91.0655C43.3819 93.7801 39.792 95.4801 35.8051 95.4801C28.2248 95.4801 22.0798 89.3351 22.0798 81.7548C22.0798 74.1745 28.2248 68.0295 35.8051 68.0295C39.6213 68.0295 43.0738 69.587 45.5615 72.1011L80.239 41.3556C80.0603 40.7298 79.9646 40.0689 79.9646 39.3856C79.9646 35.4307 83.1707 32.2246 87.1256 32.2246C89.4046 32.2246 91.435 33.2892 92.7465 34.9483L92.4964 34.005L160.548 15.9657C160.533 15.7181 160.526 15.4684 160.526 15.217C160.526 8.46071 166.003 2.98364 172.759 2.98364C179.116 2.98364 184.34 7.83155 184.936 14.0317L233.338 14.6987C233.611 6.53452 240.316 0 248.546 0C256.951 0 263.764 6.81294 263.764 15.2171ZM155 70C155 77.732 148.732 84 141 84C133.268 84 127 77.732 127 70C127 62.268 133.268 56 141 56C148.732 56 155 62.268 155 70ZM365 99C365 110.598 355.598 120 344 120C332.402 120 323 110.598 323 99C323 87.402 332.402 78 344 78C355.598 78 365 87.402 365 99ZM229.5 269C239.717 269 248 260.717 248 250.5C248 240.283 239.717 232 229.5 232C219.283 232 211 240.283 211 250.5C211 260.717 219.283 269 229.5 269ZM251 164C251 176.703 240.479 187 227.5 187C214.521 187 204 176.703 204 164C204 151.297 214.521 141 227.5 141C240.479 141 251 151.297 251 164Z" fill="black"/>
</svg>
